<?xml version="1.0" encoding="UTF-8" standalone="no"?>
<!DOCTYPE svg PUBLIC "-//W3C//DTD SVG 1.1//EN" "http://www.w3.org/Graphics/SVG/1.1/DTD/svg11.dtd">
<svg width="100%" height="100%" viewBox="0 0 827 758" version="1.1" xmlns="http://www.w3.org/2000/svg" xmlns:xlink="http://www.w3.org/1999/xlink" xml:space="preserve" xmlns:serif="http://www.serif.com/" style="fill-rule:evenodd;clip-rule:evenodd;stroke-linejoin:round;stroke-miterlimit:2;">
    <g transform="matrix(1,0,0,1,0,-0.005408)">
        <g>
            <path id="Outline" d="M195.06,0.32C224.49,-1.22 253.67,2.86 281.16,13.31L704.96,189.49C866.54,263.9 866.59,493.54 704.96,567.98C566.58,623.4 430.51,684.93 291.94,739.85C282,743.79 272.26,747.62 261.89,750.39C132.52,784.92 5.09,689.73 0,556.72L0,200.74C2.71,95.63 90.02,5.83 195.06,0.32ZM197.14,52.35C119.13,57.04 54.18,124.18 52.04,202.3L52.04,555.16C55.97,656.57 155.33,728.35 253.33,698.64C264.95,695.12 276.5,689.8 287.78,685.22C419.63,631.61 550.3,574.98 682.07,521.15C804.36,465.81 805.47,293.13 682.07,236.33L261.9,61.7C241.18,54.08 219.25,51.02 197.14,52.35Z" style="fill:url(#_Linear1);fill-rule:nonzero;"/>
            <g id="_x37_CG">
                <g>
                    <g id="G">
                        <path d="M619.67,252.69C646.06,250.72 652.18,289.77 626.56,296C595.83,303.48 588.54,255.01 619.67,252.69Z" style="fill:url(#_Linear2);fill-rule:nonzero;"/>
                        <path d="M665.47,252.69C691.89,250.71 697.97,289.77 672.36,296C641.63,303.47 634.4,255.01 665.47,252.69Z" style="fill:url(#_Linear3);fill-rule:nonzero;"/>
                        <path d="M575.03,392L575.03,354.01L644.43,354.08C691.19,358.04 706.07,398.3 700.88,440.06C695.96,479.71 669.15,501.46 629.95,503.38C613.74,504.17 593.59,504.08 577.35,503.38C513.19,500.6 478.66,463.25 472.52,400.58C467.05,344.72 479.29,279.45 538.85,259.29C549.32,255.75 571.58,250.69 581.9,253.72C603.98,260.2 601.95,292.8 577.75,296.63C561.71,299.17 550.64,299.05 537.31,310.31C513.97,330.02 513.08,376.26 517.35,404.13C523.41,443.7 544.89,458.1 583.59,459.66C597.51,460.22 630.3,461.37 642.3,456.92C671.04,446.27 667.5,391.99 634.61,391.99L575.03,391.99L575.03,392Z" style="fill:url(#_Linear4);fill-rule:nonzero;"/>
                    </g>
                    <path id="C" d="M462.11,252.54L462.11,296.25L360.88,296.23C308.07,298.56 294.78,331.79 295.05,379.8C295.29,422.63 307.57,454.99 354.66,459.13L462.11,459.66L462.11,502.59L460.32,503.4C426.38,502.28 391.59,504.79 357.76,503.4C293.51,500.75 259.01,464.52 252.42,401.64C244.44,325.56 269.95,256.34 355.68,252.54L462.12,252.56L462.11,252.54Z" style="fill:url(#_Linear5);fill-rule:nonzero;"/>
                    <g id="_x37_">
                        <g>
                            <path d="M63.51,503.36C63.02,502.91 66.2,498.74 66.73,497.99C108.57,438.76 154.46,382.25 195.88,322.73C199.61,315.49 200.33,305.47 193.33,299.91C185.26,293.51 169.41,297.41 159.63,296.14C155.02,293.98 154.39,290.3 157.43,286.35C165.82,275.44 180.47,265.27 189.43,254.35C190.53,253.38 192.42,252.56 193.89,252.52C197.4,252.42 204.67,253.91 208.29,254.78C237.42,261.78 249.28,284.39 246.09,313.1C243.02,340.76 207.26,382.17 190.39,405.18C166.29,438.07 141.93,470.63 117.89,503.36L63.51,503.36Z" style="fill:url(#_Linear6);fill-rule:nonzero;"/>
                            <path d="M140.92,252.64C146.13,252.06 149.33,258.28 145.72,262.17L112.68,295.22C106.71,299.1 100.55,291.98 105.13,286.63L137.38,254.35C138.25,253.59 139.8,252.76 140.92,252.64Z" style="fill:url(#_Linear7);fill-rule:nonzero;"/>
                            <path d="M114.38,252.64C119.57,252.02 122.8,258.3 119.18,262.17L86.14,295.22C80.82,298.68 74.66,292.88 78.07,287.67L111.88,253.83C112.55,253.26 113.52,252.75 114.38,252.64Z" style="fill:url(#_Linear8);fill-rule:nonzero;"/>
                            <path d="M166.41,252.64C171.1,251.74 174.93,257.85 171.74,261.65L137.89,295.45C132.34,298.63 127.07,292.29 130.63,287.15L163.4,254.36C164.21,253.72 165.41,252.84 166.41,252.65L166.41,252.64Z" style="fill:url(#_Linear9);fill-rule:nonzero;"/>
                        </g>
                        <g>
                            <path d="M63.51,503.36C63.02,502.91 66.2,498.74 66.73,497.99C108.57,438.76 154.46,382.25 195.88,322.73C199.61,315.49 200.33,305.47 193.33,299.91C185.26,293.51 169.41,297.41 159.63,296.14C155.02,293.98 154.39,290.3 157.43,286.35C165.82,275.44 180.47,265.27 189.43,254.35C190.53,253.38 192.42,252.56 193.89,252.52C197.4,252.42 204.67,253.91 208.29,254.78C237.42,261.78 249.28,284.39 246.09,313.1C243.02,340.76 207.26,382.17 190.39,405.18C166.29,438.07 141.93,470.63 117.89,503.36L63.51,503.36Z" style="fill:url(#_Linear10);fill-rule:nonzero;"/>
                            <path d="M140.92,252.64C146.13,252.06 149.33,258.28 145.72,262.17L112.68,295.22C106.71,299.1 100.55,291.98 105.13,286.63L137.38,254.35C138.25,253.59 139.8,252.76 140.92,252.64Z" style="fill:url(#_Linear11);fill-rule:nonzero;"/>
                            <path d="M114.38,252.64C119.57,252.02 122.8,258.3 119.18,262.17L86.14,295.22C80.82,298.68 74.66,292.88 78.07,287.67L111.88,253.83C112.55,253.26 113.52,252.75 114.38,252.64Z" style="fill:url(#_Linear12);fill-rule:nonzero;"/>
                            <path d="M166.41,252.64C171.1,251.74 174.93,257.85 171.74,261.65L137.89,295.45C132.34,298.63 127.07,292.29 130.63,287.15L163.4,254.36C164.21,253.72 165.41,252.84 166.41,252.65L166.41,252.64Z" style="fill:url(#_Linear13);fill-rule:nonzero;"/>
                        </g>
                    </g>
                </g>
            </g>
        </g>
    </g>
    <defs>
        <linearGradient id="_Linear1" x1="0" y1="0" x2="1" y2="0" gradientUnits="userSpaceOnUse" gradientTransform="matrix(-7.915547,757.51,-694.563016,-7.257787,464.091775,0)"><stop offset="0" style="stop-color:rgb(185,99,208);stop-opacity:1"/><stop offset="1" style="stop-color:rgb(115,218,234);stop-opacity:1"/></linearGradient>
        <linearGradient id="_Linear2" x1="0" y1="0" x2="1" y2="0" gradientUnits="userSpaceOnUse" gradientTransform="matrix(-7.915547,757.51,-694.563016,-7.257787,464.091775,0)"><stop offset="0" style="stop-color:rgb(185,99,208);stop-opacity:1"/><stop offset="1" style="stop-color:rgb(115,218,234);stop-opacity:1"/></linearGradient>
        <linearGradient id="_Linear3" x1="0" y1="0" x2="1" y2="0" gradientUnits="userSpaceOnUse" gradientTransform="matrix(-7.915547,757.51,-694.563016,-7.257787,464.091775,0)"><stop offset="0" style="stop-color:rgb(185,99,208);stop-opacity:1"/><stop offset="1" style="stop-color:rgb(115,218,234);stop-opacity:1"/></linearGradient>
        <linearGradient id="_Linear4" x1="0" y1="0" x2="1" y2="0" gradientUnits="userSpaceOnUse" gradientTransform="matrix(-7.915547,757.51,-694.563016,-7.257787,464.091775,0)"><stop offset="0" style="stop-color:rgb(185,99,208);stop-opacity:1"/><stop offset="1" style="stop-color:rgb(115,218,234);stop-opacity:1"/></linearGradient>
        <linearGradient id="_Linear5" x1="0" y1="0" x2="1" y2="0" gradientUnits="userSpaceOnUse" gradientTransform="matrix(-7.915547,757.51,-694.563016,-7.257787,464.091775,0)"><stop offset="0" style="stop-color:rgb(185,99,208);stop-opacity:1"/><stop offset="1" style="stop-color:rgb(115,218,234);stop-opacity:1"/></linearGradient>
        <linearGradient id="_Linear6" x1="0" y1="0" x2="1" y2="0" gradientUnits="userSpaceOnUse" gradientTransform="matrix(-7.915547,757.51,-694.563016,-7.257787,464.091775,0)"><stop offset="0" style="stop-color:rgb(185,99,208);stop-opacity:1"/><stop offset="1" style="stop-color:rgb(115,218,234);stop-opacity:1"/></linearGradient>
        <linearGradient id="_Linear7" x1="0" y1="0" x2="1" y2="0" gradientUnits="userSpaceOnUse" gradientTransform="matrix(-7.915547,757.51,-694.563016,-7.257787,464.091775,0)"><stop offset="0" style="stop-color:rgb(185,99,208);stop-opacity:1"/><stop offset="1" style="stop-color:rgb(115,218,234);stop-opacity:1"/></linearGradient>
        <linearGradient id="_Linear8" x1="0" y1="0" x2="1" y2="0" gradientUnits="userSpaceOnUse" gradientTransform="matrix(-7.915547,757.51,-694.563016,-7.257787,464.091775,0)"><stop offset="0" style="stop-color:rgb(185,99,208);stop-opacity:1"/><stop offset="1" style="stop-color:rgb(115,218,234);stop-opacity:1"/></linearGradient>
        <linearGradient id="_Linear9" x1="0" y1="0" x2="1" y2="0" gradientUnits="userSpaceOnUse" gradientTransform="matrix(-7.915547,757.51,-694.563016,-7.257787,464.091775,0)"><stop offset="0" style="stop-color:rgb(185,99,208);stop-opacity:1"/><stop offset="1" style="stop-color:rgb(115,218,234);stop-opacity:1"/></linearGradient>
        <linearGradient id="_Linear10" x1="0" y1="0" x2="1" y2="0" gradientUnits="userSpaceOnUse" gradientTransform="matrix(-7.915547,757.51,-694.563016,-7.257787,464.091775,0)"><stop offset="0" style="stop-color:rgb(185,99,208);stop-opacity:1"/><stop offset="1" style="stop-color:rgb(115,218,234);stop-opacity:1"/></linearGradient>
        <linearGradient id="_Linear11" x1="0" y1="0" x2="1" y2="0" gradientUnits="userSpaceOnUse" gradientTransform="matrix(-7.915547,757.51,-694.563016,-7.257787,464.091775,0)"><stop offset="0" style="stop-color:rgb(185,99,208);stop-opacity:1"/><stop offset="1" style="stop-color:rgb(115,218,234);stop-opacity:1"/></linearGradient>
        <linearGradient id="_Linear12" x1="0" y1="0" x2="1" y2="0" gradientUnits="userSpaceOnUse" gradientTransform="matrix(-7.915547,757.51,-694.563016,-7.257787,464.091775,0)"><stop offset="0" style="stop-color:rgb(185,99,208);stop-opacity:1"/><stop offset="1" style="stop-color:rgb(115,218,234);stop-opacity:1"/></linearGradient>
        <linearGradient id="_Linear13" x1="0" y1="0" x2="1" y2="0" gradientUnits="userSpaceOnUse" gradientTransform="matrix(-7.915547,757.51,-694.563016,-7.257787,464.091775,0)"><stop offset="0" style="stop-color:rgb(185,99,208);stop-opacity:1"/><stop offset="1" style="stop-color:rgb(115,218,234);stop-opacity:1"/></linearGradient>
    </defs>
</svg>
